#N canvas 1061 52 519 532 10;
#X obj 90 195 cnv 30 1 1 empty empty abyss 20 12 0 12 -262144 -191407
0;
#X obj 24 407 neuralCore;
#X obj 258 353 master;
#X obj 151 29 cnv 30 1 1 empty empty SURGE 20 12 0 32 -262144 -99865
0;
#X obj 38 317 cnv 30 1 1 empty empty thicket_relics_hidden 20 12 0
12 -262144 -99865 0;
#X obj 43 174 cnv 30 1 1 empty empty monument_to_infinity 20 12 0 12
-262144 -99865 0;
#X obj 268 76 r NEW-SEED;
#X obj 273 119 electron~;
#X obj 258 375 s~ scopeVis;
#N canvas 1064 151 490 742 air~ 0;
#X obj 15 241 seqGate;
#X obj 241 595 osc~;
#X obj 298 534 osc~;
#X obj 298 556 *~ 4000;
#X obj 241 572 +~;
#X obj 298 466 noise~;
#X obj 241 707 outlet~;
#X obj 15 38 r MAIN;
#X obj 15 60 t f;
#X obj 15 104 int;
#X obj 15 126 change;
#X obj 148 99 r density;
#X obj 148 205 int;
#X obj 148 182 + 10;
#X obj 231 135 neuron 4;
#X obj 231 157 sel 0 1 2 3;
#X msg 262 180 32;
#X msg 231 182 16;
#X obj 241 451 mtof;
#X obj 241 660 *~;
#X obj 15 530 vline~;
#X obj 15 552 *~;
#X obj 15 574 *~;
#X obj 15 594 *~;
#X obj 15 616 lop~ 40;
#X msg 15 505 1 2 \, 0 \$1 2;
#X obj 15 478 f;
#X obj 298 511 *~ 4000;
#X obj 369 391 neuron 100;
#X obj 369 433 + 200;
#X obj 369 412 * 4;
#X obj 148 161 * 90;
#X obj 241 617 hip~ 7000;
#X obj 241 639 hip~ 7000;
#X obj 15 82 / 2;
#X obj 148 120 * -1;
#X obj 148 141 + 1;
#X obj 241 386 neuron 24;
#X obj 241 430 + 60;
#X obj 15 366 t b b;
#X obj 220 87 inlet;
#X obj 220 108 t b b b b;
#X obj 30 434 neuron 100;
#X obj 30 455 + 20;
#X msg 241 472 \$1 700;
#X obj 241 493 line~;
#X obj 369 475 line~;
#X msg 369 454 \$1 700;
#X obj 298 490 +~;
#X obj 241 681 *~ 0.5;
#X connect 0 0 39 0;
#X connect 1 0 32 0;
#X connect 2 0 3 0;
#X connect 3 0 4 1;
#X connect 4 0 1 0;
#X connect 5 0 48 0;
#X connect 7 0 8 0;
#X connect 8 0 34 0;
#X connect 9 0 10 0;
#X connect 10 0 0 0;
#X connect 11 0 35 0;
#X connect 12 0 0 3;
#X connect 13 0 12 0;
#X connect 14 0 15 0;
#X connect 15 0 17 0;
#X connect 15 1 17 0;
#X connect 15 2 16 0;
#X connect 15 3 16 0;
#X connect 16 0 0 1;
#X connect 17 0 0 1;
#X connect 18 0 44 0;
#X connect 19 0 49 0;
#X connect 20 0 21 0;
#X connect 20 0 21 1;
#X connect 21 0 22 0;
#X connect 21 0 22 1;
#X connect 22 0 23 0;
#X connect 22 0 23 1;
#X connect 23 0 24 0;
#X connect 24 0 19 1;
#X connect 25 0 20 0;
#X connect 26 0 25 0;
#X connect 27 0 2 0;
#X connect 28 0 30 0;
#X connect 29 0 47 0;
#X connect 30 0 29 0;
#X connect 31 0 13 0;
#X connect 32 0 33 0;
#X connect 33 0 19 0;
#X connect 34 0 9 0;
#X connect 35 0 36 0;
#X connect 36 0 31 0;
#X connect 37 0 38 0;
#X connect 38 0 18 0;
#X connect 39 0 26 0;
#X connect 40 0 41 0;
#X connect 41 0 42 0;
#X connect 41 1 14 0;
#X connect 41 2 37 0;
#X connect 41 3 28 0;
#X connect 42 0 43 0;
#X connect 43 0 26 1;
#X connect 44 0 45 0;
#X connect 45 0 4 0;
#X connect 46 0 48 1;
#X connect 47 0 46 0;
#X connect 48 0 27 0;
#X connect 49 0 6 0;
#X restore 384 138 pd air~;
#N canvas 63 51 531 868 HEART~ 0;
#X obj 27 251 seqGate;
#X obj 27 684 synthDrum;
#X obj 257 46 inlet;
#X obj 27 798 outlet~;
#X obj 27 27 r MAIN;
#X obj 27 47 / 4;
#X obj 27 67 int;
#X obj 27 87 change;
#X msg 285 152 16;
#X msg 342 129 32;
#X obj 277 89 loadbang;
#X obj 257 109 markovChain;
#X obj 257 66 t b;
#X obj 257 188 t f f;
#X obj 27 414 t b;
#X obj 279 353 seqFreqSub;
#X obj 279 550 pack f 30;
#X obj 27 773 hip~ 30;
#X obj 160 151 r density;
#X obj 160 195 + 5;
#X obj 160 217 int;
#X obj 160 173 * 50;
#X text 105 440 eg 20;
#X text 120 555 eg amt 40;
#X text 147 657 decay 60;
#X obj 68 387 r infra;
#X obj 87 640 * 0.6;
#X obj 47 459 + 1;
#X obj 47 437 * -1;
#X obj 67 560 + 1;
#X obj 67 538 * -1;
#X obj 68 409 t f f f;
#X obj 279 630 s~ heartFreq;
#X obj 279 525 + 24;
#X obj 279 572 line~;
#X obj 279 594 mtof~;
#X text 297 172 length selection;
#X obj 50 361 s infraGFX;
#X obj 27 336 t b b f;
#X obj 279 498 mod 12;
#X obj 27 728 lop~ 300;
#X obj 27 750 lop~ 300;
#X obj 47 481 * 0.2;
#X obj 67 612 * 0.2;
#X obj 67 586 sqrt;
#X obj 27 706 *~ 0.5;
#X obj 87 663 + 0.1;
#X obj 47 503 + 0.05;
#X connect 0 0 38 0;
#X connect 1 0 45 0;
#X connect 2 0 12 0;
#X connect 4 0 5 0;
#X connect 5 0 6 0;
#X connect 6 0 7 0;
#X connect 7 0 0 0;
#X connect 8 0 13 0;
#X connect 9 0 13 0;
#X connect 10 0 11 0;
#X connect 11 0 8 0;
#X connect 11 1 8 0;
#X connect 11 2 8 0;
#X connect 11 3 9 0;
#X connect 12 0 11 0;
#X connect 13 0 0 1;
#X connect 13 1 15 1;
#X connect 14 0 1 0;
#X connect 15 0 39 0;
#X connect 16 0 34 0;
#X connect 17 0 3 0;
#X connect 18 0 21 0;
#X connect 19 0 20 0;
#X connect 20 0 0 3;
#X connect 21 0 19 0;
#X connect 25 0 31 0;
#X connect 26 0 46 0;
#X connect 27 0 42 0;
#X connect 28 0 27 0;
#X connect 29 0 44 0;
#X connect 30 0 29 0;
#X connect 31 0 28 0;
#X connect 31 1 30 0;
#X connect 31 2 26 0;
#X connect 33 0 16 0;
#X connect 34 0 35 0;
#X connect 35 0 32 0;
#X connect 38 0 14 0;
#X connect 38 1 37 0;
#X connect 38 2 15 0;
#X connect 39 0 33 0;
#X connect 40 0 41 0;
#X connect 41 0 17 0;
#X connect 42 0 47 0;
#X connect 43 0 1 2;
#X connect 44 0 43 0;
#X connect 45 0 40 0;
#X connect 46 0 1 3;
#X connect 47 0 1 1;
#X restore 195 109 pd HEART~;
#X obj 361 170 greatWave;
#X obj 350 324 noise~;
#X obj 350 346 lop~ 3000;
#X obj 350 367 *~ 0.003;
#X obj 363 194 lop~ 500;
#X connect 2 0 8 0;
#X connect 6 0 7 0;
#X connect 6 0 10 0;
#X connect 6 0 9 0;
#X connect 6 0 11 0;
#X connect 7 0 2 1;
#X connect 7 0 2 0;
#X connect 10 0 2 0;
#X connect 10 0 2 1;
#X connect 11 0 15 0;
#X connect 12 0 13 0;
#X connect 13 0 14 0;
#X connect 15 0 2 1;
#X connect 15 0 2 0;
