#N canvas 577 22 469 928 10;
#X obj 138 825 osc~;
#X obj 158 751 osc~;
#X obj 158 773 *~;
#X obj 139 799 +~;
#X obj 9 502 f;
#X obj 9 754 vline~;
#X obj 9 776 *~;
#X obj 9 798 *~;
#X obj 9 818 *~;
#X obj 27 412 neuron 100;
#X obj 27 432 / 100;
#X obj 9 125 seqGate;
#X obj 184 106 neuron 4;
#X obj 139 244 seqFreq;
#X obj 9 11 r MAIN;
#X obj 9 33 t f;
#X obj 27 455 + 0.5;
#X obj 9 77 int;
#X obj 9 99 change;
#X obj 9 336 flourish;
#X obj 313 339 osc~;
#X text 353 335 ampModulation;
#X obj 313 316 / 100;
#X obj 313 297 + 1;
#X obj 140 999 outlet~;
#X obj 139 433 line~;
#X obj 139 455 mtof~;
#X obj 139 873 *~;
#X obj 313 276 neuron 100;
#X obj 184 128 sel 0 1 2 3;
#X obj 140 902 vcf~ 4;
#X obj 313 365 *~ 0.25;
#X obj 313 389 +~ 0.75;
#X obj 272 18 loadbang;
#X obj 309 711 osc~;
#X text 349 707 ampModulation;
#X obj 308 672 + 1;
#X obj 308 651 neuron 100;
#X obj 308 691 / 200;
#X obj 227 18 inlet;
#X obj 142 36 r density;
#X obj 142 102 int;
#X obj 142 80 + 10;
#X msg 239 153 32;
#X obj 9 55 / 4;
#X obj 139 411 pack 0 10;
#X obj 9 673 +;
#X obj 27 557 * -1;
#X obj 27 579 + 1;
#X obj 62 268 * -1;
#X obj 62 290 + 1;
#X obj 62 312 * 15;
#X obj 62 246 r surge;
#X obj 27 535 r surge;
#X obj 331 418 r surge;
#X obj 313 532 *~;
#X obj 331 462 + 300;
#X obj 9 695 pack f f;
#X obj 62 629 r surge;
#X msg 9 729 1 \$2 \, 0 \$1 \$2;
#X obj 62 651 * 13;
#X obj 142 59 * 50;
#X obj 331 440 * 1000;
#X msg 331 484 \$1 10;
#X obj 331 506 line~;
#X obj 27 602 * 700;
#X obj 62 673 + 13;
#X obj 227 40 t b b b b b;
#X msg 192 164 16;
#X obj 185 191 t f f f;
#X obj 157 655 pack 0 10;
#X obj 157 677 line~;
#X obj 157 699 mtof~;
#X obj 157 488 seqFreqSub;
#X obj 9 840 lop~ 40;
#X obj 27 478 * 75;
#X obj 26 385 s electronGFX;
#X obj 9 217 t b f f;
#X obj 9 358 t b b;
#X obj 309 778 +~ 300;
#X obj 309 733 +~ 2;
#X obj 309 757 *~ 800;
#X obj 140 927 *~ 0.5;
#X obj 139 389 + 24;
#X obj 157 632 + 48;
#X obj 140 949 hip~ 20;
#X obj 140 971 hip~ 20;
#X connect 0 0 27 0;
#X connect 1 0 2 0;
#X connect 2 0 3 1;
#X connect 3 0 0 0;
#X connect 4 0 46 0;
#X connect 5 0 6 0;
#X connect 5 0 6 1;
#X connect 6 0 7 0;
#X connect 6 0 7 1;
#X connect 7 0 8 0;
#X connect 7 0 8 1;
#X connect 8 0 74 0;
#X connect 9 0 10 0;
#X connect 10 0 16 0;
#X connect 11 0 77 0;
#X connect 12 0 29 0;
#X connect 13 0 83 0;
#X connect 14 0 15 0;
#X connect 15 0 44 0;
#X connect 16 0 75 0;
#X connect 17 0 18 0;
#X connect 18 0 11 0;
#X connect 19 0 78 0;
#X connect 20 0 31 0;
#X connect 22 0 20 0;
#X connect 23 0 22 0;
#X connect 25 0 26 0;
#X connect 26 0 3 0;
#X connect 27 0 30 0;
#X connect 28 0 23 0;
#X connect 29 0 68 0;
#X connect 29 1 68 0;
#X connect 29 2 43 0;
#X connect 29 3 43 0;
#X connect 30 1 82 0;
#X connect 31 0 32 0;
#X connect 32 0 55 0;
#X connect 33 0 67 0;
#X connect 34 0 80 0;
#X connect 36 0 38 0;
#X connect 37 0 36 0;
#X connect 38 0 34 0;
#X connect 39 0 67 0;
#X connect 40 0 61 0;
#X connect 41 0 11 3;
#X connect 42 0 41 0;
#X connect 43 0 69 0;
#X connect 44 0 17 0;
#X connect 45 0 25 0;
#X connect 46 0 57 0;
#X connect 47 0 48 0;
#X connect 48 0 65 0;
#X connect 49 0 50 0;
#X connect 50 0 51 0;
#X connect 51 0 19 1;
#X connect 52 0 49 0;
#X connect 53 0 47 0;
#X connect 54 0 62 0;
#X connect 55 0 2 1;
#X connect 56 0 63 0;
#X connect 57 0 59 0;
#X connect 58 0 60 0;
#X connect 59 0 5 0;
#X connect 60 0 66 0;
#X connect 61 0 42 0;
#X connect 62 0 56 0;
#X connect 63 0 64 0;
#X connect 64 0 55 1;
#X connect 65 0 46 1;
#X connect 66 0 57 1;
#X connect 67 0 12 0;
#X connect 67 1 9 0;
#X connect 67 3 37 0;
#X connect 67 4 28 0;
#X connect 68 0 69 0;
#X connect 69 0 11 1;
#X connect 69 1 13 1;
#X connect 69 2 73 1;
#X connect 70 0 71 0;
#X connect 71 0 72 0;
#X connect 72 0 1 0;
#X connect 73 0 84 0;
#X connect 74 0 27 1;
#X connect 75 0 4 1;
#X connect 77 0 19 0;
#X connect 77 1 13 0;
#X connect 77 2 73 0;
#X connect 78 0 4 0;
#X connect 78 1 76 0;
#X connect 79 0 30 1;
#X connect 80 0 81 0;
#X connect 81 0 79 0;
#X connect 82 0 85 0;
#X connect 83 0 45 0;
#X connect 84 0 70 0;
#X connect 85 0 86 0;
#X connect 86 0 24 0;
