#N canvas 559 200 411 373 10;
#X obj 144 285 spigot;
#X obj 42 70 t b b;
#X obj 144 220 t b;
#X obj 42 130 spigot;
#X obj 42 45 inlet;
#X obj 144 16 r MAIN;
#X obj 42 323 outlet;
#X obj 87 103 != 0;
#X obj 144 244 spigot;
#X obj 264 299 spigot;
#X obj 264 128 loadbang;
#X obj 264 272 t b b;
#X obj 264 250 del 5;
#X obj 201 227 == 0;
#X obj 167 104 == 0;
#X obj 201 158 sel 1;
#X obj 319 282 != 0;
#X obj 167 126 t f f;
#X obj 201 201 t f f b;
#X obj 296 183 neuron 100;
#X obj 264 150 t b b;
#X obj 220 9 inlet;
#X obj 167 76 neuron 3;
#X obj 220 53 i;
#X obj 220 31 + 1;
#X obj 144 36 t f;
#X obj 296 205 * 3.2;
#X obj 144 153 / 2;
#X obj 144 175 i;
#X obj 144 197 change;
#X obj 201 179 neuron 5;
#X obj 296 227 + 47;
#X connect 0 0 6 0;
#X connect 1 0 3 0;
#X connect 1 1 22 0;
#X connect 2 0 8 0;
#X connect 3 0 6 0;
#X connect 4 0 1 0;
#X connect 5 0 25 0;
#X connect 7 0 3 1;
#X connect 8 0 0 0;
#X connect 9 0 0 0;
#X connect 10 0 20 0;
#X connect 11 0 9 0;
#X connect 11 1 12 0;
#X connect 12 0 11 0;
#X connect 13 0 8 1;
#X connect 14 0 17 0;
#X connect 15 0 30 0;
#X connect 16 0 9 1;
#X connect 17 0 0 1;
#X connect 17 1 15 0;
#X connect 18 0 13 0;
#X connect 18 1 16 0;
#X connect 18 2 19 0;
#X connect 19 0 26 0;
#X connect 20 0 12 0;
#X connect 20 1 19 0;
#X connect 21 0 24 0;
#X connect 22 0 14 0;
#X connect 22 0 7 0;
#X connect 23 0 22 1;
#X connect 24 0 23 0;
#X connect 25 0 27 0;
#X connect 26 0 31 0;
#X connect 27 0 28 0;
#X connect 28 0 29 0;
#X connect 29 0 2 0;
#X connect 30 0 18 0;
#X connect 31 0 12 1;
