#N canvas 376 22 1075 1000 10;
#X obj 210 662 line~;
#X obj 210 683 mtof~;
#X obj 211 966 outlet~;
#X text 481 750 FM IN;
#X obj 475 810 *~ 2000;
#X obj 210 757 +~;
#N canvas 0 22 1102 686 wavetables 0;
#X obj 45 234 loadbang;
#X text 103 238 TRIANGLE WAVE;
#X msg 45 370 \; \$1-triangle normalize 1;
#X obj 45 256 f \$0;
#X obj 45 287 t f f;
#X obj 43 410 table \$0-triangle;
#X msg 72 314 \; \$1-triangle sinesum 512 1 0 -0.111111 0 0.04 0 -0.0204082
0 0.0123457 0 -0.00826446;
#X msg 644 399 \; \$1-square sinesum 512 1 0 0.33 0 0.2 0 0.142857
0 0.111111 0 0.090909 0 0.076923 0 0.066666 0 0.058823 0 0.0526315
0 0.047619 0 0.04347 0 0.04 0;
#X connect 0 0 3 0;
#X connect 3 0 4 0;
#X connect 4 0 2 0;
#X connect 4 1 6 0;
#X restore 26 12 pd wavetables;
#X obj 210 618 clip 0 90;
#X obj 449 717 *~ -1;
#X text 499 425 waveShaper;
#N canvas 122 146 749 750 triOSC 0;
#X obj 65 53 inlet~;
#X obj 94 707 outlet~;
#X obj 418 54 inlet~;
#X text 416 33 PWM CV INPUT;
#X obj 12 202 phasor~;
#X obj 266 486 lop~ 10;
#X obj 384 486 lop~ 10;
#X obj 503 486 lop~ 10;
#X obj 265 313 expr~ if ($v1 < 0.5 \, (1-$v1*2) \, 0 ) \; if ($v1 <
0.5 \, $v1*2 \, (1-$v1+0.5)*2-1 ) \; if ($v1 > 0.5 \, ($v1*2-1) \,
0 );
#X obj 94 533 *~;
#X obj 12 533 *~;
#X obj 54 533 *~;
#X obj 54 324 *~ 1027;
#X obj 12 227 *~ 2051;
#X obj 54 295 phasor~;
#X obj 12 170 +~ 0.5;
#X obj 54 270 -~ 0.5;
#X obj 94 376 tabosc4~ \$0-triangle;
#X obj 54 407 tabread4~ \$0-triangle;
#X obj 12 434 tabread4~ \$0-triangle;
#X obj 94 682 *~ 1;
#X text 267 73 0 to 1 for waveshape;
#X connect 0 0 15 0;
#X connect 0 0 16 0;
#X connect 0 0 17 0;
#X connect 2 0 8 0;
#X connect 4 0 13 0;
#X connect 5 0 10 1;
#X connect 6 0 11 1;
#X connect 7 0 9 1;
#X connect 8 0 5 0;
#X connect 8 1 6 0;
#X connect 8 2 7 0;
#X connect 9 0 20 0;
#X connect 10 0 20 0;
#X connect 11 0 20 0;
#X connect 12 0 18 0;
#X connect 13 0 19 0;
#X connect 14 0 12 0;
#X connect 15 0 4 0;
#X connect 16 0 14 0;
#X connect 17 0 9 0;
#X connect 18 0 11 0;
#X connect 19 0 10 0;
#X connect 20 0 1 0;
#X restore 210 784 pd triOSC;
#X obj 449 637 *~ 0.5;
#X obj 449 661 +~ 0.5;
#X obj 549 556 * 0.5;
#X obj 549 531 line;
#X obj 549 576 t f f;
#X obj 449 690 clip~ 0 1;
#X obj 449 737 +~ 1;
#X obj 210 828 *~;
#X obj 449 470 + 1;
#X obj 449 537 vline~;
#X obj 449 448 * 1333;
#X obj 177 22 inlet;
#X obj 23 84 r MAIN;
#X obj 177 64 markovChain;
#X obj 23 313 seqGate;
#X obj 78 579 - 18.99;
#X obj 23 652 f;
#X msg 23 680 1 1 \, 0 \$1 1;
#X obj 78 601 moses 1;
#X obj 23 704 vline~;
#X obj 23 726 *~;
#X obj 23 748 *~;
#X obj 23 768 *~;
#X obj 78 535 + 0.05;
#X obj 78 494 neuron 100;
#X obj 78 514 / 100;
#X obj 549 457 neuron 100;
#X obj 549 477 / 100;
#X obj 449 405 neuron 100;
#X obj 449 425 / 100;
#X msg 549 500 \$1 100;
#X msg 449 514 \$1 100;
#X obj 449 381 t b b;
#X obj 687 537 - 18.99;
#X obj 672 583 f;
#X msg 672 611 1 1 \, 0 \$1 1;
#X obj 687 559 moses 1;
#X obj 672 635 vline~;
#X obj 672 657 *~;
#X obj 672 679 *~;
#X obj 672 699 *~;
#X obj 687 493 + 0.05;
#X obj 687 452 neuron 100;
#X obj 687 472 / 100;
#X obj 802 790 mixer~;
#X obj 802 744 *~;
#X obj 682 205 markovChain;
#X obj 848 368 * 8;
#X obj 848 346 + 1;
#X obj 848 388 t f f;
#X text 888 347 length selection 8-16 beats;
#X obj 317 782 osc~;
#X obj 317 742 + 1;
#X obj 475 767 inlet~;
#X obj 475 787 +~;
#X obj 802 764 *~ 0.2;
#X text 363 827 filterMod;
#X obj 317 899 +~ 100;
#X obj 210 863 *~;
#X obj 177 42 t b b;
#X obj 672 322 seqGate;
#X obj 23 136 / 4;
#X obj 23 158 int;
#X obj 23 180 change;
#X obj 23 287 t f f;
#X obj 449 281 loadbang;
#X obj 317 696 loadbang;
#X obj 853 302 loadbang;
#X obj 848 325 neuron 4;
#X obj 672 407 t b f;
#X obj 23 106 t f f;
#X obj 210 596 + 36;
#X obj 156 267 neuron 70;
#X obj 156 289 + 20;
#X obj 805 277 neuron 70;
#X obj 805 299 + 20;
#X obj 522 90 r NEW-SEED;
#X obj 210 451 seqFreq;
#X obj 95 822 r~ greatWave;
#X text 322 206 length selection 8 \, 16 \, 32;
#X obj 302 123 loadbang;
#X obj 282 143 markovChain;
#X obj 282 222 t f f;
#X msg 282 164 16;
#X msg 310 186 32;
#X msg 367 163 64;
#X obj 78 557 * 5000;
#X obj 687 515 * 4500;
#X obj 802 610 mtof~;
#X obj 210 639 pack 0 33;
#X obj 802 441 seqFreq;
#X obj 40 466 neuron 30;
#X obj 40 510 * 50;
#X obj 40 488 + 3;
#X obj 40 628 +;
#X obj 210 806 *~ 1;
#N canvas 0 22 214 283 oscDrift 0;
#X obj 37 75 neuron 100;
#X msg 37 200 \$1 \$2;
#X obj 37 179 pack f f;
#X obj 98 96 neuron 100;
#X obj 98 156 t f f;
#X obj 114 179 del;
#X obj 37 54 t b b b;
#X obj 98 116 * 77;
#X obj 37 95 / 33;
#X obj 37 115 - 1.5;
#X obj 37 220 line~;
#X obj 37 33 loadbang;
#X obj 98 136 + 33;
#X obj 37 240 outlet~;
#X connect 0 0 8 0;
#X connect 1 0 10 0;
#X connect 2 0 1 0;
#X connect 3 0 7 0;
#X connect 4 0 2 1;
#X connect 4 1 5 1;
#X connect 5 0 6 0;
#X connect 6 0 0 0;
#X connect 6 1 5 0;
#X connect 6 2 3 0;
#X connect 7 0 12 0;
#X connect 8 0 9 0;
#X connect 9 0 2 0;
#X connect 10 0 13 0;
#X connect 11 0 6 0;
#X connect 12 0 4 0;
#X restore 225 709 pd oscDrift;
#X obj 210 735 +~;
#X obj 210 896 vcf~ 3;
#X obj 449 593 phasor~;
#N canvas 0 22 214 283 oscDrift 0;
#X obj 37 75 neuron 100;
#X msg 37 200 \$1 \$2;
#X obj 37 179 pack f f;
#X obj 98 96 neuron 100;
#X obj 98 156 t f f;
#X obj 114 179 del;
#X obj 37 54 t b b b;
#X obj 98 116 * 77;
#X obj 37 95 / 33;
#X obj 37 115 - 1.5;
#X obj 37 220 line~;
#X obj 37 33 loadbang;
#X obj 98 136 + 33;
#X obj 37 240 outlet~;
#X connect 0 0 8 0;
#X connect 1 0 10 0;
#X connect 2 0 1 0;
#X connect 3 0 7 0;
#X connect 4 0 2 1;
#X connect 4 1 5 1;
#X connect 5 0 6 0;
#X connect 6 0 0 0;
#X connect 6 1 5 0;
#X connect 6 2 3 0;
#X connect 7 0 12 0;
#X connect 8 0 9 0;
#X connect 9 0 2 0;
#X connect 10 0 13 0;
#X connect 11 0 6 0;
#X connect 12 0 4 0;
#X restore 817 642 pd oscDrift;
#X obj 802 668 +~;
#X obj 802 701 osc~;
#X obj 802 586 + 36;
#X obj 317 721 neuron 100;
#X obj 317 851 lop~ 5;
#X obj 317 805 +~ 1;
#X obj 317 827 *~ 0.5;
#X obj 317 761 / 700;
#X obj 23 403 t b b f b;
#X msg 488 565 0;
#X obj 449 492 / 150;
#X obj 317 876 *~ 5000;
#X obj 211 921 hip~ 50;
#X obj 211 943 hip~ 150;
#X connect 0 0 1 0;
#X connect 1 0 108 0;
#X connect 4 0 5 1;
#X connect 5 0 10 0;
#X connect 7 0 100 0;
#X connect 8 0 17 0;
#X connect 10 0 106 0;
#X connect 11 0 12 0;
#X connect 12 0 16 0;
#X connect 13 0 15 0;
#X connect 14 0 13 0;
#X connect 15 0 11 1;
#X connect 15 1 12 1;
#X connect 16 0 8 0;
#X connect 17 0 10 1;
#X connect 18 0 69 0;
#X connect 19 0 122 0;
#X connect 20 0 110 0;
#X connect 21 0 19 0;
#X connect 22 0 70 0;
#X connect 23 0 81 0;
#X connect 24 0 25 2;
#X connect 24 0 43 0;
#X connect 24 1 83 0;
#X connect 24 1 35 0;
#X connect 24 2 35 0;
#X connect 24 2 83 0;
#X connect 24 2 88 2;
#X connect 24 2 37 0;
#X connect 24 2 43 0;
#X connect 24 3 35 0;
#X connect 24 3 92 0;
#X connect 25 0 120 0;
#X connect 26 0 29 0;
#X connect 27 0 28 0;
#X connect 28 0 30 0;
#X connect 29 1 105 1;
#X connect 30 0 31 0;
#X connect 30 0 31 1;
#X connect 31 0 32 0;
#X connect 31 0 32 1;
#X connect 32 0 33 0;
#X connect 32 0 33 1;
#X connect 33 0 18 1;
#X connect 34 0 97 0;
#X connect 35 0 36 0;
#X connect 36 0 34 0;
#X connect 37 0 38 0;
#X connect 38 0 41 0;
#X connect 39 0 40 0;
#X connect 40 0 21 0;
#X connect 41 0 14 0;
#X connect 42 0 20 0;
#X connect 43 0 39 0;
#X connect 43 1 37 0;
#X connect 44 0 47 0;
#X connect 45 0 46 0;
#X connect 46 0 48 0;
#X connect 47 1 45 1;
#X connect 48 0 49 0;
#X connect 48 0 49 1;
#X connect 49 0 50 0;
#X connect 49 0 50 1;
#X connect 50 0 51 0;
#X connect 50 0 51 1;
#X connect 51 0 56 1;
#X connect 52 0 98 0;
#X connect 53 0 54 0;
#X connect 54 0 52 0;
#X connect 55 0 65 1;
#X connect 56 0 66 0;
#X connect 57 0 53 0;
#X connect 57 0 71 2;
#X connect 57 1 53 0;
#X connect 57 2 85 0;
#X connect 57 2 101 2;
#X connect 57 2 115 0;
#X connect 57 3 55 1;
#X connect 57 3 79 0;
#X connect 57 3 115 0;
#X connect 58 0 60 0;
#X connect 59 0 58 0;
#X connect 60 0 71 1;
#X connect 60 1 101 1;
#X connect 62 0 117 0;
#X connect 63 0 119 0;
#X connect 64 0 65 0;
#X connect 65 0 4 0;
#X connect 66 0 55 0;
#X connect 68 0 109 1;
#X connect 69 0 109 0;
#X connect 70 0 24 0;
#X connect 70 1 57 0;
#X connect 71 0 80 0;
#X connect 72 0 73 0;
#X connect 73 0 74 0;
#X connect 74 0 75 0;
#X connect 75 0 25 0;
#X connect 75 1 71 0;
#X connect 76 0 43 0;
#X connect 76 0 35 0;
#X connect 76 0 53 0;
#X connect 77 0 115 0;
#X connect 78 0 79 0;
#X connect 79 0 59 0;
#X connect 80 0 45 0;
#X connect 80 1 101 0;
#X connect 81 0 72 0;
#X connect 82 0 7 0;
#X connect 83 0 84 0;
#X connect 84 0 25 3;
#X connect 85 0 86 0;
#X connect 86 0 71 3;
#X connect 87 0 79 0;
#X connect 87 0 92 0;
#X connect 88 0 82 0;
#X connect 89 0 69 1;
#X connect 91 0 92 0;
#X connect 92 0 94 0;
#X connect 92 1 95 0;
#X connect 92 2 95 0;
#X connect 92 3 96 0;
#X connect 93 0 25 1;
#X connect 93 1 88 1;
#X connect 94 0 93 0;
#X connect 95 0 93 0;
#X connect 96 0 93 0;
#X connect 97 0 26 0;
#X connect 98 0 44 0;
#X connect 99 0 112 0;
#X connect 100 0 0 0;
#X connect 101 0 114 0;
#X connect 102 0 104 0;
#X connect 103 0 105 0;
#X connect 104 0 103 0;
#X connect 105 0 27 1;
#X connect 106 0 18 0;
#X connect 107 0 108 1;
#X connect 108 0 5 0;
#X connect 109 1 124 0;
#X connect 110 0 11 0;
#X connect 111 0 112 1;
#X connect 112 0 113 0;
#X connect 113 0 56 0;
#X connect 114 0 99 0;
#X connect 115 0 63 0;
#X connect 116 0 123 0;
#X connect 117 0 118 0;
#X connect 118 0 116 0;
#X connect 119 0 62 0;
#X connect 120 0 27 0;
#X connect 120 1 102 0;
#X connect 120 2 88 0;
#X connect 120 3 121 0;
#X connect 121 0 110 1;
#X connect 122 0 42 0;
#X connect 123 0 68 0;
#X connect 124 0 125 0;
#X connect 125 0 2 0;
