#N canvas 9 49 990 348 10;
#X obj 92 73 f 1;
#X obj 92 49 t b;
#X msg 19 205 1;
#X msg 89 205 2;
#X msg 159 205 3;
#X obj 89 183 moses 70;
#X obj 92 95 sel 1 2 3 4;
#X obj 159 183 moses 90;
#X msg 212 205 4;
#X msg 253 205 1;
#X msg 323 205 2;
#X msg 393 205 3;
#X msg 446 205 4;
#X msg 492 205 1;
#X msg 562 205 2;
#X msg 632 205 3;
#X msg 685 205 4;
#X obj 492 183 moses 40;
#X msg 727 205 1;
#X msg 797 205 2;
#X msg 867 205 3;
#X msg 920 205 4;
#X obj 727 183 moses 60;
#X obj 92 28 inlet;
#X obj 278 29 select 1 2 3 4;
#X obj 278 51 outlet;
#X obj 349 111 outlet;
#X obj 301 71 outlet;
#X obj 325 91 outlet;
#X obj 146 12 r \$0-state;
#X obj 492 295 s \$0-state;
#X obj 393 183 moses 90;
#X obj 867 183 moses 95;
#X obj 19 161 neuron 100;
#X obj 492 161 neuron 100;
#X obj 253 161 neuron 100;
#X obj 727 161 neuron 100;
#X obj 19 183 moses 20;
#X obj 253 183 moses 30;
#X obj 323 183 moses 60;
#X obj 797 183 moses 80;
#X obj 562 183 moses 70;
#X obj 632 183 moses 90;
#X connect 0 0 6 0;
#X connect 1 0 0 0;
#X connect 2 0 30 0;
#X connect 3 0 30 0;
#X connect 4 0 30 0;
#X connect 5 0 3 0;
#X connect 5 1 7 0;
#X connect 6 0 33 0;
#X connect 6 1 35 0;
#X connect 6 2 34 0;
#X connect 6 3 36 0;
#X connect 7 0 4 0;
#X connect 7 1 8 0;
#X connect 8 0 30 0;
#X connect 9 0 30 0;
#X connect 10 0 30 0;
#X connect 11 0 30 0;
#X connect 12 0 30 0;
#X connect 13 0 30 0;
#X connect 14 0 30 0;
#X connect 15 0 30 0;
#X connect 16 0 30 0;
#X connect 17 0 13 0;
#X connect 17 1 41 0;
#X connect 18 0 30 0;
#X connect 19 0 30 0;
#X connect 20 0 30 0;
#X connect 21 0 30 0;
#X connect 22 0 18 0;
#X connect 22 1 40 0;
#X connect 23 0 1 0;
#X connect 24 0 25 0;
#X connect 24 1 27 0;
#X connect 24 2 28 0;
#X connect 24 3 26 0;
#X connect 29 0 0 1;
#X connect 29 0 24 0;
#X connect 31 0 11 0;
#X connect 31 1 12 0;
#X connect 32 0 20 0;
#X connect 32 1 21 0;
#X connect 33 0 37 0;
#X connect 34 0 17 0;
#X connect 35 0 38 0;
#X connect 36 0 22 0;
#X connect 37 0 2 0;
#X connect 37 1 5 0;
#X connect 38 0 9 0;
#X connect 38 1 39 0;
#X connect 39 0 10 0;
#X connect 39 1 31 0;
#X connect 40 0 19 0;
#X connect 40 1 32 0;
#X connect 41 0 14 0;
#X connect 41 1 42 0;
#X connect 42 0 15 0;
#X connect 42 1 16 0;
