#N canvas 337 501 459 311 10;
#X obj 78 48 inlet~;
#X text 12 109 master;
#X obj 191 48 inlet~;
#X obj 78 185 clip~ -1 1;
#X obj 191 190 clip~ -1 1;
#X obj 191 170 *~ 0.97;
#X obj 78 165 *~ 0.97;
#X obj 78 92 saturate~;
#X obj 78 269 dac~;
#X obj 191 92 saturate~;
#X connect 0 0 7 0;
#X connect 2 0 9 0;
#X connect 3 0 8 0;
#X connect 4 0 8 1;
#X connect 5 0 4 0;
#X connect 6 0 3 0;
#X connect 7 0 6 0;
#X connect 9 0 5 0;
#X coords 0 311 1 310 500 80 0;
