#N canvas 239 49 448 516 10;
#X obj 59 287 inlet;
#X obj 221 244 inlet;
#X obj 59 419 outlet;
#N canvas 0 50 450 250 (subpatch) 0;
#X array \$0-cv 8 float 2;
#X coords 0 100 8 0 100 100 1 0 0;
#X restore 65 140 graph;
#X obj 208 301 until;
#X obj 208 329 f;
#X obj 239 329 + 1;
#X obj 283 329 sel 0;
#X obj 208 273 t b;
#X obj 245 181 \$1;
#X obj 239 350 mod \$1;
#X text 207 106 lengthIn;
#X obj 208 127 inlet;
#X text 10 31 void;
#X obj 59 339 mod \$1;
#X text 59 265 timecode input;
#X text 10 22 2017-aug;
#X obj 208 150 t b b f f f;
#X text 9 70 timecode : length : random;
#X obj 59 388 tabread \$0-cv;
#X obj 245 204 array size \$0-cv;
#X obj 208 420 neuron 100;
#X obj 208 385 t b f;
#X obj 208 458 tabwrite \$0-cv;
#X text 240 272 randomize CV sequence;
#X text 10 12 v2.0;
#X connect 0 0 14 0;
#X connect 1 0 8 0;
#X connect 4 0 5 0;
#X connect 5 0 6 0;
#X connect 5 0 22 0;
#X connect 6 0 10 0;
#X connect 7 0 4 1;
#X connect 8 0 4 0;
#X connect 9 0 20 0;
#X connect 10 0 5 1;
#X connect 10 0 7 0;
#X connect 12 0 17 0;
#X connect 14 0 19 0;
#X connect 17 0 8 0;
#X connect 17 1 9 0;
#X connect 17 2 14 1;
#X connect 17 3 9 1;
#X connect 17 4 10 1;
#X connect 19 0 2 0;
#X connect 21 0 23 0;
#X connect 22 0 21 0;
#X connect 22 1 23 1;
#X coords 0 -1 1 1 130 140 1 50 100;
