#N canvas 861 106 460 935 10;
#X obj 59 287 inlet;
#X obj 221 244 inlet;
#X obj 132 888 outlet;
#X obj 59 388 tabread \$0-freq;
#N canvas 0 50 450 250 (subpatch) 0;
#X array \$0-freq 64 float 2;
#X coords 0 100 64 0 100 100 1 0 0;
#X restore 65 140 graph;
#X text 240 272 randomize melody input;
#X obj 208 301 until;
#X obj 208 329 f;
#X obj 239 329 + 1;
#X obj 283 329 sel 0;
#X obj 208 273 t b;
#X obj 208 535 tabwrite \$0-freq;
#X obj 208 372 t b f;
#X obj 245 181 \$1;
#X obj 245 204 array size \$0-freq;
#X obj 239 350 mod \$1;
#X obj 132 683 tabread scaleArray;
#X text 207 106 lengthIn;
#X obj 208 127 inlet;
#X text 10 31 void;
#X text 194 616 latched arp array size;
#X obj 59 339 mod \$1;
#X text 59 265 timecode input;
#X obj 235 444 markovChain;
#X msg 235 464 1;
#X obj 263 484 1.23;
#X msg 291 464 1.53;
#X msg 320 485 1.97;
#X text 306 401 state probability;
#X obj 208 150 t b b f f f;
#X text 9 70 timecode : length : random;
#X text 10 12 v3;
#X text 10 22 2017-nov;
#X obj 208 397 neuron 100;
#X obj 208 417 t f b;
#X obj 208 507 /;
#X obj 132 617 pack f f;
#X obj 132 637 expr $f1 * ($f2 / 100);
#X obj 193 592 r num-down;
#X obj 132 657 int;
#X obj 138 439 > 50;
#X obj 92 622 == 0;
#X obj 138 461 t f f;
#X obj 132 546 spigot;
#X obj 59 645 spigot;
#X obj 132 568 - 50;
#X obj 132 590 * 2;
#X obj 59 667 * 2;
#X text 121 781 latched arp array size;
#X obj 59 782 pack f f;
#X obj 59 802 expr $f1 * ($f2 / 100);
#X obj 120 757 r num-down;
#X obj 59 822 int;
#X obj 132 705 + 12;
#X obj 59 844 tabread scaleArray;
#X obj 59 410 t f f f;
#X connect 0 0 21 0;
#X connect 1 0 10 0;
#X connect 3 0 55 0;
#X connect 6 0 7 0;
#X connect 7 0 8 0;
#X connect 7 0 12 0;
#X connect 8 0 15 0;
#X connect 9 0 6 1;
#X connect 10 0 6 0;
#X connect 12 0 33 0;
#X connect 12 1 11 1;
#X connect 13 0 14 0;
#X connect 15 0 7 1;
#X connect 15 0 9 0;
#X connect 16 0 53 0;
#X connect 18 0 29 0;
#X connect 21 0 3 0;
#X connect 23 0 24 0;
#X connect 23 1 25 0;
#X connect 23 2 26 0;
#X connect 23 3 27 0;
#X connect 24 0 35 1;
#X connect 25 0 35 1;
#X connect 26 0 35 1;
#X connect 27 0 35 1;
#X connect 29 0 10 0;
#X connect 29 1 13 0;
#X connect 29 2 21 1;
#X connect 29 3 13 1;
#X connect 29 4 15 1;
#X connect 33 0 34 0;
#X connect 34 0 35 0;
#X connect 34 1 23 0;
#X connect 35 0 11 0;
#X connect 36 0 37 0;
#X connect 37 0 39 0;
#X connect 38 0 36 1;
#X connect 39 0 16 0;
#X connect 40 0 42 0;
#X connect 41 0 44 1;
#X connect 42 0 41 0;
#X connect 42 1 43 1;
#X connect 43 0 45 0;
#X connect 44 0 47 0;
#X connect 45 0 46 0;
#X connect 46 0 36 0;
#X connect 47 0 49 0;
#X connect 49 0 50 0;
#X connect 50 0 52 0;
#X connect 51 0 49 1;
#X connect 52 0 54 0;
#X connect 53 0 2 0;
#X connect 54 0 2 0;
#X connect 55 0 44 0;
#X connect 55 1 43 0;
#X connect 55 2 40 0;
#X coords 0 -1 1 1 130 140 1 50 100;
