#N canvas 309 90 480 747 10;
#X obj 59 287 inlet;
#X obj 59 388 tabread \$0-freq;
#N canvas 0 50 450 250 (subpatch) 0;
#X array \$0-freq 16 float 2;
#X coords 0 100 16 0 100 100 1 0 0;
#X restore 65 140 graph;
#X obj 245 181 \$1;
#X obj 245 204 array size \$0-freq;
#X text 207 106 lengthIn;
#X obj 208 127 inlet;
#X text 10 31 void;
#X obj 59 339 mod \$1;
#X text 59 265 timecode input;
#X obj 208 150 t b b f f f;
#X text 9 70 timecode : length : random;
#X text 10 12 v3;
#X text 10 22 2017-dec;
#X obj 221 244 inlet;
#X text 240 272 randomize melody input;
#X obj 208 301 until;
#X obj 208 329 f;
#X obj 238 329 + 1;
#X obj 282 329 sel 0;
#X obj 208 273 t b;
#X obj 208 535 tabwrite \$0-freq;
#X obj 208 372 t b f;
#X obj 238 350 mod \$1;
#X obj 235 444 markovChain;
#X msg 235 464 1;
#X obj 263 484 1.23;
#X msg 291 464 1.53;
#X msg 320 485 1.97;
#X text 306 401 state probability;
#X obj 208 397 neuron 100;
#X obj 208 417 t f b;
#X obj 208 507 /;
#X obj 59 643 tabread scaleArray;
#X text 121 576 latched arp array size;
#X obj 59 577 pack f f;
#X obj 59 597 expr $f1 * ($f2 / 100);
#X obj 120 552 r num-down;
#X obj 59 617 int;
#X obj 59 668 outlet;
#X connect 0 0 8 0;
#X connect 1 0 35 0;
#X connect 3 0 4 0;
#X connect 6 0 10 0;
#X connect 8 0 1 0;
#X connect 10 0 20 0;
#X connect 10 1 3 0;
#X connect 10 2 8 1;
#X connect 10 3 3 1;
#X connect 10 4 23 1;
#X connect 14 0 20 0;
#X connect 16 0 17 0;
#X connect 17 0 18 0;
#X connect 17 0 22 0;
#X connect 18 0 23 0;
#X connect 19 0 16 1;
#X connect 20 0 16 0;
#X connect 22 0 30 0;
#X connect 22 1 21 1;
#X connect 23 0 17 1;
#X connect 23 0 19 0;
#X connect 24 0 25 0;
#X connect 24 1 26 0;
#X connect 24 2 27 0;
#X connect 24 3 28 0;
#X connect 25 0 32 1;
#X connect 26 0 32 1;
#X connect 27 0 32 1;
#X connect 28 0 32 1;
#X connect 30 0 31 0;
#X connect 31 0 32 0;
#X connect 31 1 24 0;
#X connect 32 0 21 0;
#X connect 33 0 39 0;
#X connect 35 0 36 0;
#X connect 36 0 38 0;
#X connect 37 0 35 1;
#X connect 38 0 33 0;
#X coords 0 -1 1 1 130 140 1 50 100;
