#N canvas 1011 179 536 542 10;
#X obj 23 229 inlet;
#X obj 281 160 inlet;
#X text 323 213 randomize gate sequence;
#X obj 271 212 until;
#X obj 271 240 f;
#X obj 302 240 + 1;
#X obj 346 240 sel 0;
#N canvas 0 50 450 250 (subpatch) 0;
#X array \$0-gates 8 float 2;
#X coords 0 2 8 -1 100 50 1 0 0;
#X restore 120 130 graph;
#X obj 271 495 tabwrite \$0-gates;
#X obj 60 324 tabread \$0-gates;
#X obj 335 159 array size \$0-gates;
#X obj 335 136 \$1;
#X obj 302 261 mod \$1;
#X obj 60 291 mod \$1;
#X text 320 90 lengthIn;
#X obj 271 91 inlet;
#X obj 271 185 t b;
#X obj 23 253 t f f;
#X obj 23 381 spigot;
#X obj 23 403 outlet;
#X obj 271 281 t b f;
#X obj 271 302 neuron 100;
#X obj 271 448 t b;
#X obj 332 448 t b;
#X obj 271 112 t b b f f f;
#X obj 295 325 inlet;
#X obj 295 345 int;
#X text 10 12 v2.2 2017-aug void;
#X text 33 25 added density controls;
#X text 328 346 density input;
#X obj 60 345 t f;
#X text 84 383 timecode on gates;
#X text 9 56 timecode : length : random : density;
#X obj 271 428 moses 50;
#X obj 295 365 change;
#X obj 295 405 s \$0-density;
#X obj 311 185 r \$0-density;
#X obj 295 385 t b f;
#X msg 271 468 1;
#X msg 332 468 0;
#X connect 0 0 17 0;
#X connect 1 0 16 0;
#X connect 3 0 4 0;
#X connect 4 0 5 0;
#X connect 4 0 20 0;
#X connect 5 0 12 0;
#X connect 6 0 3 1;
#X connect 9 0 30 0;
#X connect 11 0 10 0;
#X connect 12 0 4 1;
#X connect 12 0 6 0;
#X connect 13 0 9 0;
#X connect 15 0 24 0;
#X connect 16 0 3 0;
#X connect 17 0 18 0;
#X connect 17 1 13 0;
#X connect 18 0 19 0;
#X connect 20 0 21 0;
#X connect 20 1 8 1;
#X connect 21 0 33 0;
#X connect 22 0 38 0;
#X connect 23 0 39 0;
#X connect 24 0 16 0;
#X connect 24 1 11 0;
#X connect 24 2 13 1;
#X connect 24 3 12 1;
#X connect 24 4 11 1;
#X connect 25 0 26 0;
#X connect 26 0 34 0;
#X connect 30 0 18 1;
#X connect 33 0 22 0;
#X connect 33 1 23 0;
#X connect 34 0 37 0;
#X connect 36 0 16 0;
#X connect 37 0 35 0;
#X connect 37 1 33 1;
#X connect 38 0 8 0;
#X connect 39 0 8 0;
#X coords 0 -1 1 1 140 80 1 100 100;
