#N canvas 763 50 424 773 10;
#X obj 34 634 *~;
#X obj 290 574 vline~;
#X obj 290 524 f;
#X msg 146 147 1 1 \, 0 \$1 1;
#X obj 146 176 vline~;
#X obj 146 208 *~;
#X obj 146 228 *~;
#X obj 146 126 f;
#X obj 146 352 *~;
#X obj 221 271 pack 0 50;
#X obj 221 293 line~;
#X obj 34 367 +~;
#X obj 34 732 outlet~;
#X obj 311 434 t b f;
#X obj 311 459 +;
#X obj 221 315 +~;
#X obj 221 337 clip~ 0 0.5;
#N canvas 292 124 758 559 anti-alias 0;
#X obj 144 23 inlet~;
#X obj 144 509 outlet~;
#X obj 144 69 osc~;
#N canvas 398 294 827 623 wform-xfader 0;
#X obj 115 479 *~;
#X obj 116 559 outlet~;
#X obj 59 420 inlet~ A;
#X obj 252 483 *~;
#X obj 193 428 inlet~ B;
#X obj 403 489 *~;
#X obj 344 434 inlet~ C;
#X obj 90 138 sig~;
#X obj 90 219 clip~ 0 1;
#X obj 90 345 lop~ 10;
#X obj 208 345 lop~ 10;
#X obj 327 345 lop~ 10;
#X obj 90 246 expr~ if ($v1 < 0.5 \, (1-$v1*2) \, 0 ) \; if ($v1 <
0.5 \, $v1*2 \, (1-$v1+0.5)*2-1 ) \; if ($v1 > 0.5 \, ($v1*2-1) \,
0 );
#X obj 90 294 clip~ 0 1;
#X obj 208 301 clip~ 0 1;
#X obj 327 300 clip~ 0 1;
#X obj 90 32 r heartWave;
#X connect 0 0 1 0;
#X connect 2 0 0 0;
#X connect 3 0 1 0;
#X connect 4 0 3 0;
#X connect 5 0 1 0;
#X connect 6 0 5 0;
#X connect 7 0 8 0;
#X connect 8 0 12 0;
#X connect 9 0 0 1;
#X connect 10 0 3 1;
#X connect 11 0 5 1;
#X connect 12 0 13 0;
#X connect 12 1 14 0;
#X connect 12 2 15 0;
#X connect 13 0 9 0;
#X connect 14 0 10 0;
#X connect 15 0 11 0;
#X connect 16 0 7 0;
#X restore 144 283 pd wform-xfader;
#X obj 388 77 phasor~;
#X obj 388 99 expr~ $v1 > 0.5;
#X obj 388 121 *~ 2;
#X obj 388 143 -~ 1;
#X obj 211 91 phasor~;
#X obj 211 223 -~ 1;
#X obj 211 113 *~ 2;
#X connect 0 0 2 0;
#X connect 0 0 4 0;
#X connect 0 0 8 0;
#X connect 2 0 3 0;
#X connect 3 0 1 0;
#X connect 4 0 5 0;
#X connect 5 0 6 0;
#X connect 6 0 7 0;
#X connect 7 0 3 2;
#X connect 8 0 10 0;
#X connect 9 0 3 1;
#X connect 10 0 9 0;
#X restore 34 609 pd anti-alias;
#X obj 37 86 inlet;
#X text 35 67 trigger;
#X obj 290 596 sqrt~;
#X text 317 384 decay;
#X text 169 12 EG;
#X obj 221 219 inlet;
#X obj 167 30 inlet;
#X obj 311 406 inlet;
#X text 224 198 EG amt;
#X obj 37 111 t b b;
#X obj 167 99 max 10;
#X obj 311 500 max 10;
#X obj 146 248 *~;
#X obj 146 277 *~ 3141;
#X obj 167 54 f;
#X obj 167 77 * 803;
#X obj 34 586 +~;
#X obj 311 478 * 1333;
#X obj 34 683 lop~ 700;
#X obj 34 661 lop~ 700;
#X obj 221 249 * 0.25;
#N canvas 0 50 214 283 oscDrift 0;
#X obj 37 75 neuron 100;
#X msg 37 200 \$1 \$2;
#X obj 37 179 pack f f;
#X obj 98 96 neuron 100;
#X obj 98 156 t f f;
#X obj 114 179 del;
#X obj 37 54 t b b b;
#X obj 98 116 * 77;
#X obj 37 95 / 33;
#X obj 37 115 - 1.5;
#X obj 37 220 line~;
#X obj 37 33 loadbang;
#X obj 98 136 + 33;
#X obj 37 240 outlet~;
#X connect 0 0 8 0;
#X connect 1 0 10 0;
#X connect 2 0 1 0;
#X connect 3 0 7 0;
#X connect 4 0 2 1;
#X connect 4 1 5 1;
#X connect 5 0 6 0;
#X connect 6 0 0 0;
#X connect 6 1 5 0;
#X connect 6 2 3 0;
#X connect 7 0 12 0;
#X connect 8 0 9 0;
#X connect 9 0 2 0;
#X connect 10 0 13 0;
#X connect 11 0 6 0;
#X connect 12 0 4 0;
#X restore 49 550 pd oscDrift;
#X obj 34 330 r~ heartFreq;
#X msg 290 552 1 8 \, 0 \$1 8;
#X obj 290 618 lop~ 30;
#X connect 0 0 37 0;
#X connect 1 0 20 0;
#X connect 2 0 41 0;
#X connect 3 0 4 0;
#X connect 4 0 5 0;
#X connect 4 0 5 1;
#X connect 5 0 6 0;
#X connect 5 0 6 1;
#X connect 6 0 30 0;
#X connect 6 0 30 1;
#X connect 7 0 3 0;
#X connect 8 0 11 1;
#X connect 9 0 10 0;
#X connect 10 0 15 0;
#X connect 11 0 34 0;
#X connect 13 0 14 0;
#X connect 13 1 14 1;
#X connect 14 0 35 0;
#X connect 15 0 16 0;
#X connect 16 0 8 1;
#X connect 17 0 0 0;
#X connect 18 0 27 0;
#X connect 20 0 42 0;
#X connect 23 0 38 0;
#X connect 24 0 32 0;
#X connect 25 0 13 0;
#X connect 27 0 2 0;
#X connect 27 1 7 0;
#X connect 28 0 7 1;
#X connect 29 0 2 1;
#X connect 30 0 31 0;
#X connect 31 0 8 0;
#X connect 32 0 33 0;
#X connect 33 0 28 0;
#X connect 34 0 17 0;
#X connect 35 0 29 0;
#X connect 36 0 12 0;
#X connect 37 0 36 0;
#X connect 38 0 9 0;
#X connect 39 0 34 1;
#X connect 40 0 11 0;
#X connect 41 0 1 0;
#X connect 42 0 0 1;
