#N canvas 791 256 450 300 10;
#X obj 59 238 dac~;
#X obj 64 91 osc~ 440;
#X obj 220 78 r noteOn;
#X obj 212 153 vline~;
#X msg 220 99 1 3 \, 0 500 1;
#X obj 71 185 *~;
#X obj 245 46 bng 15 250 50 0 empty empty empty 17 7 0 10 -262144 -1
-1;
#X connect 1 0 5 0;
#X connect 2 0 4 0;
#X connect 3 0 5 1;
#X connect 4 0 3 0;
#X connect 5 0 0 0;
#X connect 5 0 0 1;
#X connect 6 0 4 0;
