#N canvas 136 109 845 662 10;
#X declare -path crater;
#X declare -path crater/reverb;
#X obj 23 35 cnv 30 800 600 empty empty empty 20 12 0 14 -228856 -66577
0;
#N canvas 141 335 359 110 shrine 0;
#X obj 10 50 declare -path crater;
#X text 11 24 declares path for abstractions;
#X obj 10 76 declare -path crater/reverb;
#X restore 32 67 pd shrine;
#N canvas 1230 273 238 431 startup 0;
#X obj 11 105 r aux;
#N canvas 682 197 575 330 MEMORIES 0;
#X msg 30 270 write crater/memories/000-MEMORIES.txt;
#X obj 16 15 loadbang;
#X obj 16 125 text get 000-MEMORIES;
#X obj 335 119 outlet;
#X obj 372 98 outlet;
#X obj 16 145 list trim;
#X obj 335 55 route memory;
#X obj 16 77 f;
#X obj 47 77 + 1;
#X obj 91 77 sel 0;
#X obj 16 55 until;
#X text 90 55 output contents of file;
#X text 107 166 route file;
#X obj 16 165 s MEMORIES;
#X obj 335 35 r MEMORIES;
#X obj 335 75 sel 1;
#X msg 16 226 read crater/memories/000-MEMORIES.txt;
#X obj 16 206 loadbang;
#X obj 48 97 mod 5;
#X obj 30 249 r storeMemories;
#X obj 234 143 loadbang;
#X msg 234 163 read crater/memories/002-creation.txt;
#X obj 16 35 del 5;
#X obj 234 183 text define 002-creation;
#X obj 16 292 text define 000-MEMORIES;
#X connect 0 0 24 0;
#X connect 1 0 22 0;
#X connect 2 0 5 0;
#X connect 5 0 13 0;
#X connect 6 0 15 0;
#X connect 7 0 8 0;
#X connect 7 0 2 0;
#X connect 8 0 18 0;
#X connect 9 0 10 1;
#X connect 10 0 7 0;
#X connect 14 0 6 0;
#X connect 15 0 3 0;
#X connect 15 1 4 0;
#X connect 16 0 24 0;
#X connect 17 0 16 0;
#X connect 18 0 7 1;
#X connect 18 0 9 0;
#X connect 19 0 0 0;
#X connect 20 0 21 0;
#X connect 21 0 23 0;
#X connect 22 0 10 0;
#X restore 50 24 pd MEMORIES;
#N canvas 398 50 731 775 CREATION 0;
#X obj 49 43 inlet;
#X obj 373 287 text set 000-MEMORIES;
#X obj 85 176 f;
#X obj 124 175 + 1;
#X obj 85 154 spigot 0;
#X msg 146 98 1;
#X obj 85 323 s consciousness;
#X obj 106 270 s awareness;
#X obj 127 247 s emergence;
#X obj 148 224 s evolve;
#X obj 85 200 sel 0 1 2 3;
#X obj 374 100 f;
#X obj 413 99 + 1;
#X obj 374 123 t f f;
#X msg 374 264 list memory 1;
#X obj 397 229 s storeMemories;
#N canvas 922 421 373 374 thoughts 0;
#X obj 36 176 text get 002-creation;
#X obj 36 54 neuron 30;
#X obj 36 29 inlet;
#X obj 142 130 + 1;
#X obj 73 95 neuron 6;
#X obj 142 150 s led;
#X obj 73 115 t b f;
#X msg 73 155 0;
#X obj 36 196 t s b;
#X msg 73 239 \; screenLine5 press AUX to proceed \;;
#X obj 73 135 del 250;
#X obj 36 73 t f b;
#X obj 73 217 del 2000;
#X msg 36 272 \; screenLine1 ::: \; screenLine2 ::: \; screenLine3
\$1 \; screenLine4 ::: \; screenLine5 ::: \;;
#X connect 0 0 8 0;
#X connect 1 0 11 0;
#X connect 2 0 1 0;
#X connect 3 0 5 0;
#X connect 4 0 6 0;
#X connect 6 0 10 0;
#X connect 6 1 3 0;
#X connect 7 0 5 0;
#X connect 8 0 13 0;
#X connect 8 1 12 0;
#X connect 10 0 7 0;
#X connect 11 0 0 0;
#X connect 11 1 4 0;
#X connect 12 0 9 0;
#X restore 223 493 pd thoughts;
#X obj 85 220 t b b;
#X obj 374 77 t b;
#X obj 85 300 del 50;
#X msg 122 350 \; screenLine1 ::: \; screenLine2 ::: \; screenLine3
::: \; screenLine4 ::: \; screenLine5 ::: \;;
#X msg 49 643 \; screenLine1 VOIDPULSE \; screenLine2 ::: \; screenLine3
find a quiet place \; screenLine4 ::: \; screenLine5 ::: \;;
#X msg 72 580 \; screenLine5 press AUX to proceed \;;
#X obj 49 63 t b b b;
#X obj 85 110 r aux;
#X obj 374 148 sel 0 1;
#X obj 85 132 sel 1;
#X obj 72 556 del 100;
#X obj 49 619 del 50;
#X obj 420 171 t b;
#X msg 420 193 \; screenLine5 reload patch \;;
#X connect 0 0 23 0;
#X connect 2 0 3 0;
#X connect 2 0 10 0;
#X connect 3 0 2 1;
#X connect 4 0 2 0;
#X connect 5 0 4 1;
#X connect 10 0 17 0;
#X connect 10 1 7 0;
#X connect 10 1 16 0;
#X connect 10 2 8 0;
#X connect 10 2 16 0;
#X connect 10 3 9 0;
#X connect 10 3 16 0;
#X connect 10 4 18 0;
#X connect 11 0 12 0;
#X connect 11 0 13 0;
#X connect 12 0 11 1;
#X connect 13 0 25 0;
#X connect 13 1 1 1;
#X connect 14 0 1 0;
#X connect 17 0 19 0;
#X connect 17 1 20 0;
#X connect 18 0 11 0;
#X connect 19 0 6 0;
#X connect 19 0 16 0;
#X connect 23 0 28 0;
#X connect 23 1 27 0;
#X connect 23 2 5 0;
#X connect 24 0 26 0;
#X connect 25 0 14 0;
#X connect 25 0 16 0;
#X connect 25 1 16 0;
#X connect 25 1 15 0;
#X connect 25 2 29 0;
#X connect 26 0 4 0;
#X connect 27 0 22 0;
#X connect 28 0 21 0;
#X connect 29 0 30 0;
#X restore 124 48 pd CREATION;
#X obj 11 127 spigot;
#X msg 50 68 1;
#X obj 11 154 sel 1;
#X obj 43 202 spigot 1;
#X msg 136 211 0;
#X obj 11 174 t b b;
#X obj 11 274 s auxa;
#X obj 69 244 neuron 3;
#X obj 69 268 sel 0 1 2;
#X obj 69 337 s consciousness;
#X obj 92 314 s awareness;
#X obj 115 291 s emergence;
#X obj 43 222 t b b b;
#X obj 43 360 s evolve;
#X text 15 385 implement chaos;
#X obj 50 46 t b;
#X connect 0 0 3 0;
#X connect 1 0 18 0;
#X connect 1 1 2 0;
#X connect 3 0 5 0;
#X connect 4 0 3 1;
#X connect 5 0 8 0;
#X connect 6 0 15 0;
#X connect 7 0 6 1;
#X connect 8 0 9 0;
#X connect 8 1 6 0;
#X connect 10 0 11 0;
#X connect 11 0 12 0;
#X connect 11 1 13 0;
#X connect 11 2 14 0;
#X connect 15 0 16 0;
#X connect 15 1 10 0;
#X connect 15 2 7 0;
#X connect 18 0 4 0;
#X restore 32 88 pd startup;
#X text 101 413 < primary patch;
#N canvas 915 330 549 447 controlMap 0;
#X restore 722 49 pd controlMap;
#N canvas 1150 391 421 376 masterClock 0;
#X obj 18 162 master-metronome;
#X obj 18 138 tgl 15 0 empty empty empty 17 7 0 10 -262144 -1 -1 0
1;
#X obj 221 184 s MAIN;
#X obj 143 59 + 5;
#X obj 18 97 >= 10;
#X obj 18 116 change;
#X text 262 63 clock + midi;
#X obj 221 34 r 24ppq;
#X obj 221 54 / 3;
#X obj 221 74 i;
#X obj 221 94 change;
#X obj 221 134 f;
#X obj 258 134 + 1;
#X obj 221 114 t b;
#X obj 258 153 mod 256;
#X obj 221 162 t f;
#X obj 291 93 r ZERO;
#X obj 143 20 r Tempo;
#X connect 1 0 0 0;
#X connect 3 0 4 0;
#X connect 3 0 0 1;
#X connect 4 0 5 0;
#X connect 5 0 1 0;
#X connect 7 0 8 0;
#X connect 8 0 9 0;
#X connect 9 0 10 0;
#X connect 10 0 13 0;
#X connect 11 0 12 0;
#X connect 11 0 15 0;
#X connect 12 0 14 0;
#X connect 13 0 11 0;
#X connect 14 0 11 1;
#X connect 15 0 2 0;
#X connect 16 0 11 1;
#X connect 17 0 3 0;
#X restore 32 46 pd masterClock;
#X obj 668 336 cnv 30 1 1 empty empty controlMap 20 12 0 16 -228856
-99865 0;
#X obj 432 586 cnv 30 1 1 empty empty UnityPD 20 12 0 32 -228856 -162280
0;
#X obj 31 413 __SURGE;
#X text 614 572 by wo3 \; • usage: CC \, BY \; • no warranties
\; • contact: werle.kyle@gmail.com \;;
#X obj 512 94 cnv 30 1 1 empty empty voidpulse 20 12 0 32 -228856 -162280
0;
#X obj 488 374 s density;
#X obj 619 374 s surge;
#X obj 560 374 s infra;
#X obj 512 57 cnv 30 1 1 empty empty SURGE 20 12 0 48 -228856 -99865
0;
#X obj 401 465 r num-down;
#X obj 541 397 cnv 30 1 1 empty empty 0-1-floatInputs 20 12 0 12 -228856
-99865 0;
#X obj 634 143 r TriggerControl;
#X obj 478 186 s Tempo;
#X floatatom 479 167 5 0 0 0 - - -, f 5;
#X msg 515 340 0.5;
#X obj 49 196 bng 50 250 50 0 empty empty empty 17 7 0 10 -128992 -262144
-128992;
#X obj 102 226 cnv 15 1 1 empty empty alter 0 12 0 12 -228856 -99865
0;
#X obj 49 172 r auxa;
#X obj 49 277 s NEW-SEED;
#X obj 49 246 t b b b;
#X msg 586 355 0.2;
#X floatatom 515 262 5 0 0 0 - - -, f 5;
#X obj 515 282 / 100;
#X floatatom 673 240 5 0 0 0 - - -, f 5;
#X obj 673 260 / 100;
#X obj 292 285 tgl 15 0 empty empty empty 17 7 0 10 -262144 -1 -1 0
1;
#X floatatom 292 326 5 0 0 0 - - -, f 5;
#X obj 538 209 s notes;
#X obj 363 357 sig~;
#X obj 363 378 s~ greatWave;
#X msg 368 329 0.5;
#X obj 292 305 * 75;
#X obj 565 299 loadbang;
#X obj 538 167 r NoteControl;
#X obj 538 188 pack f 100;
#X msg 700 180 1;
#X msg 746 189 0;
#X obj 634 203 s aux;
#X connect 17 0 31 0;
#X connect 17 0 43 0;
#X connect 19 0 18 0;
#X connect 20 0 11 0;
#X connect 20 0 13 0;
#X connect 21 0 25 0;
#X connect 23 0 21 0;
#X connect 25 0 24 0;
#X connect 26 0 12 0;
#X connect 27 0 28 0;
#X connect 28 0 13 0;
#X connect 29 0 30 0;
#X connect 30 0 12 0;
#X connect 31 0 37 0;
#X connect 34 0 35 0;
#X connect 36 0 34 0;
#X connect 37 0 32 0;
#X connect 37 0 28 0;
#X connect 38 0 26 0;
#X connect 38 0 20 0;
#X connect 38 0 36 0;
#X connect 39 0 40 0;
#X connect 40 0 33 0;
#X connect 41 0 31 0;
#X connect 41 0 43 0;
#X connect 42 0 31 0;
#X connect 42 0 43 0;
