#N canvas 0 22 450 300 10;
#X obj 363 41 r TriggerControl;
#X obj 49 196 bng 50 250 50 0 empty empty empty 17 7 0 10 -128992 -262144
-128992;
#X obj 102 226 cnv 15 1 1 empty empty alter 0 12 0 12 -228856 -99865
0;
#X obj 49 277 s NEW-SEED;
#X obj 49 246 t b b b;
#X obj 538 209 s notes;
#X obj 538 167 r NoteControl;
#X msg 379 141 1;
#X msg 436 123 0, f 2;
#X obj 179 354 noise~;
#X obj 179 376 lop~ 3000;
#X obj 179 397 *~ 0.003;
#N canvas 122 146 749 750 triOSC 0;
#X obj 65 53 inlet~;
#X obj 94 707 outlet~;
#X obj 418 54 inlet~;
#X text 416 33 PWM CV INPUT;
#X obj 12 202 phasor~;
#X obj 266 486 lop~ 10;
#X obj 384 486 lop~ 10;
#X obj 503 486 lop~ 10;
#X obj 265 313 expr~ if ($v1 < 0.5 \, (1-$v1*2) \, 0 ) \; if ($v1 <
0.5 \, $v1*2 \, (1-$v1+0.5)*2-1 ) \; if ($v1 > 0.5 \, ($v1*2-1) \,
0 );
#X obj 94 533 *~;
#X obj 12 533 *~;
#X obj 54 533 *~;
#X obj 54 324 *~ 1027;
#X obj 12 227 *~ 2051;
#X obj 54 295 phasor~;
#X obj 12 170 +~ 0.5;
#X obj 54 270 -~ 0.5;
#X obj 94 376 tabosc4~ \$0-triangle;
#X obj 54 407 tabread4~ \$0-triangle;
#X obj 12 434 tabread4~ \$0-triangle;
#X obj 94 682 *~ 1;
#X text 267 73 0 to 1 for waveshape;
#X connect 0 0 15 0;
#X connect 0 0 16 0;
#X connect 0 0 17 0;
#X connect 2 0 8 0;
#X connect 4 0 13 0;
#X connect 5 0 10 1;
#X connect 6 0 11 1;
#X connect 7 0 9 1;
#X connect 8 0 5 0;
#X connect 8 1 6 0;
#X connect 8 2 7 0;
#X connect 9 0 20 0;
#X connect 10 0 20 0;
#X connect 11 0 20 0;
#X connect 12 0 18 0;
#X connect 13 0 19 0;
#X connect 14 0 12 0;
#X connect 15 0 4 0;
#X connect 16 0 14 0;
#X connect 17 0 9 0;
#X connect 18 0 11 0;
#X connect 19 0 10 0;
#X connect 20 0 1 0;
#X restore 253 327 pd triOSC;
#X obj 382 216 f;
#X obj 382 268 vline~;
#X obj 382 290 *~;
#X obj 382 312 *~;
#X obj 382 332 *~;
#X obj 253 301 +~;
#X obj 253 279 +~;
#X obj 253 203 line~;
#X obj 253 224 mtof~;
#X obj 253 159 clip 0 90;
#X obj 253 348 *~;
#X obj 253 113 r notes;
#X obj 253 137 + 0;
#X msg 622 279 34;
#X floatatom 536 364 5 0 0 0 - - -, f 5;
#X obj 370 71 sel 1;
#X msg 382 194 10000;
#X msg 455 212 0 200;
#X obj 253 180 pack 0 77;
#N canvas 996 265 482 425 modDelay 0;
#X obj 48 71 inlet~;
#X obj 69 303 outlet~;
#X obj 153 236 *~ 0.98;
#X obj 153 214 vd~ modDelay;
#X obj 98 102 delwrite~ modDelay 200;
#X text 206 186 0-1;
#X obj 151 143 inlet~;
#X obj 153 189 *~ 37;
#X obj 153 258 *~ 0.33;
#X obj 153 279 lop~ 3000;
#X connect 0 0 1 0;
#X connect 0 0 4 0;
#X connect 2 0 8 0;
#X connect 3 0 2 0;
#X connect 6 0 7 0;
#X connect 7 0 3 0;
#X connect 8 0 9 0;
#X connect 9 0 4 0;
#X connect 9 0 1 0;
#X restore 349 398 pd modDelay;
#X floatatom 433 402 5 0 100 0 - - -, f 5;
#X obj 433 422 / 100;
#X obj 433 443 * -5;
#X obj 441 474 + 5;
#X obj 442 495 clip 0.5 5;
#X msg 382 244 1 11 \, 0 \$1 200;
#X obj 442 531 line~ 100;
#X obj 265 403 +~;
#X obj 567 441 r RotationX;
#N canvas 0 22 1102 686 wavetables 0;
#X obj 45 234 loadbang;
#X text 103 238 TRIANGLE WAVE;
#X msg 45 370 \; \$1-triangle normalize 1;
#X obj 45 256 f \$0;
#X obj 45 287 t f f;
#X obj 43 410 table \$0-triangle;
#X msg 72 314 \; \$1-triangle sinesum 512 1 0 -0.111111 0 0.04 0 -0.0204082
0 0.0123457 0 -0.00826446;
#X msg 644 399 \; \$1-square sinesum 512 1 0 0.33 0 0.2 0 0.142857
0 0.111111 0 0.090909 0 0.076923 0 0.066666 0 0.058823 0 0.0526315
0 0.047619 0 0.04347 0 0.04 0;
#X connect 0 0 3 0;
#X connect 3 0 4 0;
#X connect 4 0 2 0;
#X connect 4 1 6 0;
#X restore 34 42 pd wavetables;
#X connect 0 0 28 0;
#X connect 1 0 4 0;
#X connect 4 0 3 0;
#X connect 6 0 5 0;
#X connect 7 0 29 0;
#X connect 8 0 30 0;
#X connect 9 0 10 0;
#X connect 10 0 11 0;
#X connect 12 0 23 0;
#X connect 13 0 38 0;
#X connect 14 0 15 0;
#X connect 14 0 15 1;
#X connect 15 0 16 0;
#X connect 15 0 16 1;
#X connect 16 0 17 0;
#X connect 16 0 17 1;
#X connect 17 0 23 1;
#X connect 18 0 12 0;
#X connect 19 0 18 0;
#X connect 20 0 21 0;
#X connect 21 0 19 0;
#X connect 22 0 31 0;
#X connect 23 0 40 0;
#X connect 24 0 25 0;
#X connect 25 0 22 0;
#X connect 26 0 5 0;
#X connect 27 0 5 0;
#X connect 28 0 7 0;
#X connect 28 1 8 0;
#X connect 29 0 13 0;
#X connect 30 0 14 0;
#X connect 31 0 20 0;
#X connect 33 0 34 0;
#X connect 34 0 35 0;
#X connect 35 0 36 0;
#X connect 36 0 37 0;
#X connect 37 0 39 0;
#X connect 38 0 14 0;
#X connect 39 0 32 1;
